<svg xmlns="http://www.w3.org/2000/svg" version="1.1" xmlns:xlink="http://www.w3.org/1999/xlink"
    xmlns:svgjs="http://svgjs.dev/svgjs" viewBox="0 0 800 800">
    <style>
        .st3{fill:none;stroke:#cb9eff;stroke-width:2;stroke-miterlimit:10}
    </style>
    <g stroke-width="3.5" stroke="hsl(32, 100%, 51%)" fill="none">
        <path class="st3"
            d="M399.9999694824219 -249.51812744140625L962.5000054258089 75.24094614950718V724.7590933313343L399.9999694824219 1049.5181669222477L-162.50006646096517 724.7590933313343V75.24094614950718L399.9999694824219 -249.51812744140625Z "
            transform="rotate(0, 400, 400)"></path>
        <path class="st3"
            d="M399.9999694824219 -177.3494873046875L900.0000014320992 111.32524477612446V688.6747089377486L399.9999694824219 977.3494410185606L-100.00006246725547 688.6747089377486V111.32524477612446L399.9999694824219 -177.3494873046875Z "
            transform="rotate(0, 400, 400)"></path>
        <path class="st3"
            d="M399.9999694824219 -105.1807861328125L837.4999974383895 147.409604437898V652.5903855793191L399.9999694824219 905.1807761500295L-37.500058473545835 652.5903855793191V147.409604437898L399.9999694824219 -105.1807861328125Z "
            transform="rotate(0, 400, 400)"></path>
        <path class="st3"
            d="M400.0000305175781 -33.0120849609375L775.0000544798362 183.49396409967153V616.5060622208895L400.0000305175781 833.0121112814986L25.000006555320113 616.5060622208895V183.49396409967153L400.0000305175781 -33.0120849609375Z "
            transform="rotate(0, 400, 400)"></path>
        <path class="st3"
            d="M400.0000305175781 39.156585693359375L712.5000504861265 219.57829324386688V580.4217083448818L400.0000305175781 760.8434158953894L87.50001054902975 580.4217083448818V219.57829324386688L400.0000305175781 39.156585693359375Z "
            transform="rotate(0, 400, 400)"></path>
        <path class="st3"
            d="M400.00001525878906 111.32525634765625L650.0000312336277 255.66262238806223V544.3373544688743L400.00001525878906 688.6747205092803L149.9999992839504 544.3373544688743V255.66262238806223L400.00001525878906 111.32525634765625Z "
            transform="rotate(0, 400, 400)"></path>
        <path class="st3"
            d="M400 183.49395751953125L587.5000119811291 291.74698204983576V508.2530311104447L400 616.5060556407493L212.49998801887097 508.2530311104447V291.74698204983576L400 183.49395751953125Z "
            transform="rotate(0, 400, 400)"></path>
        <path class="st3"
            d="M400 255.66262817382812L525.0000079874194 327.8313111940311V472.16867723443715L400 544.3373602546401L274.99999201258066 472.16867723443715V327.8313111940311L400 255.66262817382812Z "
            transform="rotate(0, 400, 400)"></path>
        <path class="st3"
            d="M400 327.83131408691406L462.5000039937097 363.9156555970156V436.0843386172186L400 472.16868012732004L337.4999960062903 436.0843386172186V363.9156555970156L400 327.83131408691406Z "
            transform="rotate(0, 400, 400)"></path>
    </g>
</svg>